<?xml version="1.0" standalone="no"?>
<!DOCTYPE svg PUBLIC "-//W3C//DTD SVG 20010904//EN"
 "http://www.w3.org/TR/2001/REC-SVG-20010904/DTD/svg10.dtd">
<svg version="1.0" xmlns="http://www.w3.org/2000/svg"
 width="64.000000pt" height="64.000000pt" viewBox="0 0 64.000000 64.000000"
 preserveAspectRatio="xMidYMid meet">

<g transform="translate(0.000000,64.000000) scale(0.100000,-0.100000)"
fill="#000000" stroke="none">
<path d="M71 606 c-47 -26 -50 -46 -51 -284 0 -243 5 -267 55 -290 40 -18 457
-17 494 2 47 25 51 49 51 286 0 237 -4 261 -51 286 -39 20 -462 20 -498 0z
m489 -46 c19 -19 20 -33 20 -240 0 -207 -1 -221 -20 -240 -19 -19 -33 -20
-240 -20 -207 0 -221 1 -240 20 -19 19 -20 33 -20 240 0 207 1 221 20 240 19
19 33 20 240 20 207 0 221 -1 240 -20z"/>
<path d="M145 430 c-3 -5 -3 -16 1 -22 20 -34 166 -208 174 -208 14 0 181 211
177 223 -9 28 -31 11 -98 -72 -40 -50 -76 -91 -79 -91 -3 0 -39 41 -78 90 -71
89 -85 100 -97 80z"/>
</g>
</svg>
